<?xml version="1.0" encoding="UTF-8"?>
<svg width="170px" height="49px" viewBox="0 0 170 49" version="1.1" xmlns="http://www.w3.org/2000/svg" xmlns:xlink="http://www.w3.org/1999/xlink">
    <!-- Generator: Sketch 49.2 (51160) - http://www.bohemiancoding.com/sketch -->
    <title>CP Logo</title>
    <desc>Created with Sketch.</desc>
    <defs></defs>
    <g id="Page-1" stroke="none" stroke-width="1" fill="none" fill-rule="evenodd">
        <g id="Home" transform="translate(-555.000000, -3871.000000)">
            <g id="Banner" transform="translate(85.000000, 3871.000000)">
                <g id="CP-Logo" transform="translate(470.000000, 0.000000)">
                    <g>
                        <g id="Group" transform="translate(44.944582, 17.286378)" fill-rule="nonzero">
                            <path d="M10.045278,5.38198818 C9.83724101,4.54229669 9.43727316,3.88312078 8.84626919,3.40581767 C8.25481782,2.92941943 7.59133643,2.69099409 6.85627246,2.69099409 C6.26482109,2.69099409 5.73734667,2.82038621 5.27429664,3.07781318 C4.81079921,3.33569258 4.41485784,3.69853341 4.08736739,4.16633567 C3.75987693,4.63413793 3.51202211,5.18654276 3.34469774,5.82309768 C3.17647859,6.46055744 3.09281641,7.16542778 3.09281641,7.93951837 C3.09281641,8.6977743 3.17647859,9.39450106 3.34469774,10.0315084 C3.51202211,10.6685158 3.75182386,11.2168488 4.06365563,11.6760551 C4.37504002,12.1366186 4.75040137,12.4994594 5.19063445,12.76503 C5.62952538,13.0306005 6.12926152,13.1645168 6.6889481,13.1645168 C7.59983687,13.1645168 8.33490087,12.9138762 8.89458745,12.4121424 C9.45382663,11.9113135 9.83724101,11.1924181 10.045278,10.2550039 L13.137647,10.2550039 C12.9779283,11.1118873 12.7179939,11.8841682 12.3582913,12.5722991 C11.999036,13.2599775 11.5511973,13.8531 11.0161172,14.3503096 C10.4801424,14.8479716 9.85692625,15.2311713 9.14557401,15.4999088 C8.43466913,15.7681939 7.64726035,15.9034674 6.78468985,15.9034674 C5.82593016,15.9034674 4.93070009,15.7378817 4.10034174,15.4062579 C3.26953599,15.0755389 2.54923592,14.5824011 1.93899412,13.9272969 C1.32830492,13.2735501 0.852280525,12.4614562 0.511368314,11.4910153 C0.170456105,10.5214793 0,9.39812041 0,8.12139122 C0,6.86094912 0.158376538,5.72989915 0.476024396,4.72733647 C0.792330081,3.72567859 1.24464274,2.87286693 1.83162019,2.16980627 C2.41859764,1.4667456 3.13487119,0.929723079 3.98133565,0.557381425 C4.82690528,0.185944615 5.7776119,0 6.8325607,0 C7.75910819,0 8.59438786,0.141155037 9.33795227,0.423917528 C10.0810693,0.707132444 10.7199442,1.09123701 11.2554716,1.57623124 C11.7909991,2.06077305 12.2187052,2.63036981 12.5381426,3.28502154 C12.85758,3.93967327 13.057564,4.63866216 13.137647,5.38198818 L10.045278,5.38198818" id="Fill-1" fill="#39515A"></path>
                            <path d="M21.2590186,10.0090156 C20.9653309,10.2478192 20.4502336,10.438862 19.7150991,10.5825905 C18.701373,10.7745261 18.0147291,11.001278 17.6556248,11.2641851 C17.2960631,11.5270923 17.1162823,11.8904308 17.1162823,12.3528617 C17.1162823,13.1656867 17.5577289,13.5723223 18.4401647,13.5723223 C18.8161949,13.5723223 19.1794162,13.5214371 19.5312011,13.4169884 C19.8820712,13.3134324 20.1885678,13.1580985 20.4502336,12.9505402 C20.7114419,12.7434283 20.9200426,12.4805212 21.0755782,12.1618188 C21.2301988,11.8426701 21.3084241,11.4753143 21.3084241,11.0606441 C21.3084241,10.9338773 21.3038495,10.7584571 21.2960727,10.5348298 C21.2878385,10.3120952 21.2754871,10.1366751 21.2590186,10.0090156 Z M19.4451991,4.14873064 C21.0302898,4.14873064 22.2192222,4.51519372 23.0119963,5.24901262 C23.8043129,5.98283152 24.2009287,7.05097547 24.2009287,8.45389082 L24.2009287,15.3425935 L21.455268,15.3425935 C21.422331,15.214934 21.3898515,15.0796863 21.357372,14.9359578 C21.3244351,14.7922293 21.2997324,14.6328781 21.2837214,14.4579042 C20.9241597,14.8243674 20.4584678,15.0997726 19.8866458,15.2823346 C19.3143663,15.4657894 18.652425,15.5577399 17.9008221,15.5577399 C16.773189,15.5577399 15.8701677,15.2863519 15.1922155,14.7449149 C14.5138058,14.2021389 14.1748297,13.4526973 14.1748297,12.4961439 C14.1748297,11.7467023 14.301088,11.1490238 14.554977,10.7026619 C14.807951,10.2558537 15.1633956,9.90545959 15.6213107,9.65014062 C16.0787684,9.39482162 16.6217706,9.20377876 17.2516897,9.07567291 C17.8802365,8.94801339 18.5627633,8.83642294 19.2978978,8.74134786 C19.8866458,8.66100272 20.3482205,8.53423597 20.6830795,8.35792301 C21.0179385,8.18294915 21.185368,7.93566469 21.185368,7.61696231 C21.185368,7.20184578 20.9895761,6.89162428 20.5975349,6.68361968 C20.2050362,6.47695412 19.7718239,6.37339818 19.2978978,6.37339818 C18.7750237,6.37339818 18.3376942,6.52114395 17.9868242,6.81574278 C17.6350393,7.11123433 17.426896,7.50492549 17.361937,7.99904809 L14.5426256,7.99904809 C14.640979,6.78806833 15.0654997,5.84312029 15.8175601,5.16554296 C16.5687055,4.48796567 17.7782235,4.14873064 19.4451991,4.14873064 Z" id="Fill-2" fill="#39515A"></path>
                            <path d="M30.4389579,6.64711497 C28.8144004,6.64711497 28.0021217,7.84876631 28.0021217,10.2516162 C28.0021217,11.1929248 28.2315509,11.9599171 28.6899566,12.5525929 C29.1483624,13.1443631 29.7393574,13.4409274 30.4633942,13.4409274 C31.1869784,13.4409274 31.7824987,13.1285161 32.2490498,12.5036937 C32.715601,11.8788712 32.9486503,11.0711297 32.9486503,10.0804692 C32.9486503,7.79217005 32.1123879,6.64711497 30.4389579,6.64711497 Z M28.0749779,4.44031446 L28.0740729,5.82262096 C28.3641401,5.24035889 28.7591927,4.81611346 29.2592306,4.54852645 C29.7583634,4.28184498 30.3950632,4.14873064 31.1688775,4.14873064 C31.9743684,4.14873064 32.675779,4.31082227 33.2722043,4.63409997 C33.8686296,4.9573777 34.3677624,5.39430065 34.7709602,5.94396331 C35.1741584,6.49407873 35.4719183,7.12478723 35.6655984,7.83608875 C35.8588255,8.54784305 35.9556655,9.29219675 35.9556655,10.0686971 C35.9556655,10.9094908 35.8552054,11.6778414 35.65338,12.3732959 C35.4520076,13.0692033 35.1578674,13.6709345 34.7709602,14.1807534 C34.3840532,14.6905723 33.9089041,15.086746 33.3450605,15.3692744 C32.7807643,15.6522556 32.1359191,15.7944254 31.4109773,15.7944254 C30.7344555,15.7944254 30.1013758,15.6667443 29.514001,15.4100237 C28.9252686,15.1542087 28.4695779,14.7304161 28.1478341,14.1377403 L28.1478341,20.7436532 L25.2381114,20.7436532 L25.2381114,4.44031446 L28.0749779,4.44031446 Z" id="Fill-3" fill="#39515A"></path>
                            <path d="M45.9817646,6.38697407 L39.9076945,6.38697407 L39.9076945,10.8879059 C39.9076945,11.5746856 40.0364572,12.1055212 40.2935295,12.4804126 C40.5510554,12.8557509 40.9767888,13.0438669 41.5720905,13.0438669 C42.1510697,13.0438669 42.5772567,12.8597724 42.8506512,12.4920303 C43.1240453,12.1256286 43.260516,11.5992613 43.260516,10.9124816 L43.260516,8.06303832 L45.9817646,8.06303832 L45.9817646,11.1997941 C45.9817646,11.7744192 45.8965272,12.3253622 45.726506,12.8517295 C45.5564844,13.3785436 45.2889843,13.8414608 44.9244585,14.2400343 C44.5603859,14.6395015 44.0947542,14.9585391 43.5280162,15.1984875 C42.9608249,15.4375423 42.2889006,15.5577399 41.5113362,15.5577399 C40.7011275,15.5577399 40.012881,15.4375423 39.4461433,15.1984875 C38.8789521,14.9585391 38.4137736,14.6395015 38.0492478,14.2400343 C37.684722,13.8414608 37.4176747,13.3785436 37.2472003,12.8517295 C37.0776323,12.3253622 36.9928482,11.7663762 36.9928482,11.1756652 L36.9928482,1.38291021 L39.9076945,1.38291021 L39.9076945,4.32842222 L45.9817646,4.32842222 L45.9817646,6.38697407" id="Fill-4" fill="#39515A"></path>
                            <path d="M54.4491869,10.0090156 C54.1550284,10.2478192 53.6403649,10.438862 52.905197,10.5825905 C51.8914246,10.7745261 51.2047495,11.001278 50.8456288,11.2641851 C50.485593,11.5270923 50.3062617,11.8904308 50.3062617,12.3528617 C50.3062617,13.1656867 50.7477285,13.5723223 51.6297469,13.5723223 C52.0057944,13.5723223 52.3694898,13.5214371 52.7212907,13.4169884 C53.0721765,13.3134324 53.3786872,13.1580985 53.6403649,12.9505402 C53.9015852,12.7434283 54.1097381,12.4805212 54.265738,12.1618188 C54.420366,11.8426701 54.4981371,11.4753143 54.4981371,11.0606441 C54.4981371,10.9338773 54.4940198,10.7584571 54.4857853,10.5348298 C54.4775507,10.3120952 54.4651989,10.1366751 54.4491869,10.0090156 Z M52.6352848,4.14873064 C54.2204477,4.14873064 55.4094345,4.51519372 56.201787,5.24901262 C56.9945974,5.98283152 57.3907738,7.05097547 57.3907738,8.45389082 L57.3907738,15.3425935 L54.6454454,15.3425935 C54.6125069,15.214934 54.5800258,15.0796863 54.547545,14.9359578 C54.5146065,14.7922293 54.4899025,14.6328781 54.4738909,14.4579042 C54.1143128,14.8243674 53.6485998,15.0997726 53.0762941,15.2823346 C52.5044459,15.4657894 51.842017,15.5577399 51.0903798,15.5577399 C49.9631527,15.5577399 49.0596328,15.2863519 48.3816497,14.7449149 C47.7036665,14.2021389 47.3646748,13.4526973 47.3646748,12.4961439 C47.3646748,11.7467023 47.490939,11.1490238 47.7443818,10.7026619 C47.997825,10.2558537 48.3532858,9.90545959 48.8107643,9.65014062 C49.2687005,9.39482162 49.8117275,9.20377876 50.4412178,9.07567291 C51.0702508,8.94801339 51.7528086,8.83642294 52.4879765,8.74134786 C53.0762941,8.66100272 53.5378899,8.53423597 53.872764,8.35792301 C54.2076385,8.18294915 54.3755331,7.93566469 54.3755331,7.61696231 C54.3755331,7.20184578 54.179732,6.89162428 53.7872154,6.68361968 C53.3951566,6.47695412 52.9619243,6.37339818 52.4879765,6.37339818 C51.9650788,6.37339818 51.5277293,6.52114395 51.1763857,6.81574278 C50.8250422,7.11123433 50.6168896,7.50492549 50.55147,7.99904809 L47.73203,7.99904809 C47.8303878,6.78806833 48.2553855,5.84312029 49.0070228,5.16554296 C49.7586597,4.48796567 50.9682332,4.14873064 52.6352848,4.14873064 Z" id="Fill-5" fill="#39515A"></path>
                            <path d="M58.773684,15.2120123 L61.5395045,15.2120123 L61.5395045,4.07822642 L58.773684,4.07822642 L58.773684,15.2120123 Z M58.773684,2.75906826 L61.5395045,2.75906826 L61.5395045,0 L58.773684,0 L58.773684,2.75906826 Z" id="Fill-6" fill="#39515A"></path>
                            <path d="M66.0665668,6.07495063 C66.405357,5.45714081 66.8622242,4.98172754 67.4362599,4.64825582 C68.0102959,4.31569395 68.741919,4.14873064 69.6315839,4.14873064 C70.1647469,4.14873064 70.6538581,4.22971013 71.0989176,4.39212405 C71.5439769,4.55453796 71.9277272,4.79110726 72.2506222,5.09910228 C72.5739715,5.40800719 72.8287454,5.79425208 73.0144896,6.25692702 C73.2006881,6.72051185 73.2942413,7.25324773 73.2942413,7.85376978 L73.2942413,15.5577399 L70.3736524,15.5577399 L70.3736524,8.82961812 C70.3736524,7.96750502 70.2315059,7.38745529 69.9476667,7.08628438 C69.6638278,6.78602335 69.1729002,6.63543788 68.4757918,6.63543788 C66.9503277,6.63543788 66.1878228,7.48890714 66.1878228,9.19539065 L66.1878228,15.5577399 L63.2681422,15.5577399 L63.2681422,4.44171261 L66.0665668,4.44171261 L66.0665668,6.07495063" id="Fill-7" fill="#39515A"></path>
                            <path d="M77.8149467,2.93230593 L77.8149467,7.28356769 L80.7829597,7.28356769 C81.512933,7.28356769 82.1207902,7.0778684 82.607439,6.66737201 C83.0936336,6.25642454 83.336958,5.72819236 83.336958,5.08402877 C83.336958,4.47144186 83.1063446,3.95944909 82.643756,3.54850162 C82.1816213,3.13800522 81.5610531,2.93230593 80.7829597,2.93230593 L77.8149467,2.93230593 Z M81.5855673,0.345727553 C82.2338268,0.345727553 82.8339666,0.470680851 83.385986,0.720587448 C83.9366439,0.970945136 84.4155751,1.31242401 84.8209645,1.74773062 C85.2263539,2.18303724 85.5386808,2.69097014 85.757491,3.27107823 C85.9767556,3.85073523 86.0861607,4.47911048 86.0861607,5.15665507 C86.0861607,5.83284637 85.9722158,6.45806398 85.7452343,7.03005235 C85.5182524,7.60158964 85.2018398,8.09373423 84.7964507,8.50423062 C84.3910613,8.91517809 83.9044124,9.23725988 83.336958,9.47092707 C82.7690497,9.70459423 82.145304,9.82187892 81.463905,9.82187892 L77.8149467,9.82187892 L77.8149467,15.2120123 L74.6771515,15.2120123 L74.6771515,0.345727553 L81.5855673,0.345727553 Z" id="Fill-8" fill="#286AA6"></path>
                            <path d="M93.8618047,10.0090156 C93.5685745,10.2478192 93.0534771,10.438862 92.3178854,10.5825905 C91.3041593,10.7745261 90.6179727,11.001278 90.2588686,11.2641851 C89.8988494,11.5270923 89.7190683,11.8904308 89.7190683,12.3528617 C89.7190683,13.1656867 90.160515,13.5723223 91.0434084,13.5723223 C91.4185235,13.5723223 91.7822023,13.5214371 92.1339873,13.4169884 C92.4853146,13.3134324 92.7918114,13.1580985 93.0534771,12.9505402 C93.3142279,12.7434283 93.5228289,12.4805212 93.6788218,12.1618188 C93.8334426,11.8426701 93.9112102,11.4753143 93.9112102,11.0606441 C93.9112102,10.9338773 93.9070933,10.7584571 93.8984013,10.5348298 C93.8910819,10.3120952 93.8778157,10.1366751 93.8618047,10.0090156 Z M92.0484426,4.14873064 C93.6335336,4.14873064 94.8224657,4.51519372 95.614325,5.24901262 C96.4075564,5.98283152 96.8037149,7.05097547 96.8037149,8.45389082 L96.8037149,15.3425935 L94.0585116,15.3425935 C94.0251171,15.214934 93.9926377,15.0796863 93.9601583,14.9359578 C93.9276786,14.7922293 93.902976,14.6328781 93.8865076,14.4579042 C93.5274032,14.8243674 93.0612539,15.0997726 92.4898893,15.2823346 C91.9176099,15.4657894 91.2552112,15.5577399 90.5036085,15.5577399 C89.3759752,15.5577399 88.4729538,15.2863519 87.7950018,14.7449149 C87.116592,14.2021389 86.7776158,13.4526973 86.7776158,12.4961439 C86.7776158,11.7467023 86.9038742,11.1490238 87.157763,10.7026619 C87.4107374,10.2558537 87.7661819,9.90545959 88.2236393,9.65014062 C88.6815544,9.39482162 89.2245569,9.20377876 89.8540185,9.07567291 C90.4830228,8.94801339 91.1655495,8.83642294 91.9011412,8.74134786 C92.4898893,8.66100272 92.9505491,8.53423597 93.2858658,8.35792301 C93.6207247,8.18294915 93.788154,7.93566469 93.788154,7.61696231 C93.788154,7.20184578 93.5923623,6.89162428 93.2007784,6.68361968 C92.8078224,6.47695412 92.3750677,6.37339818 91.9011412,6.37339818 C91.37781,6.37339818 90.9404805,6.52114395 90.5900677,6.81574278 C90.238283,7.11123433 90.029682,7.50492549 89.9647233,7.99904809 L87.1449545,7.99904809 C87.2433077,6.78806833 87.6682857,5.84312029 88.4198888,5.16554296 C89.1714915,4.48796567 90.3810097,4.14873064 92.0484426,4.14873064 Z" id="Fill-9" fill="#286AA6"></path>
                            <path d="M100.984722,6.07495063 C101.324436,5.45714081 101.780416,4.98172754 102.355386,4.64825582 C102.929448,4.31569395 103.66065,4.14873064 104.549901,4.14873064 C105.083996,4.14873064 105.57313,4.22971013 106.017301,4.39212405 C106.462381,4.55453796 106.847056,4.79110726 107.169966,5.09910228 C107.49333,5.40800719 107.748115,5.79425208 107.933868,6.25692702 C108.120075,6.72051185 108.212724,7.25324773 108.212724,7.85376978 L108.212724,15.5577399 L105.292911,15.5577399 L105.292911,8.82961812 C105.292911,7.96750502 105.150304,7.38745529 104.866452,7.08628438 C104.583055,6.78602335 104.091196,6.63543788 103.394056,6.63543788 C101.868978,6.63543788 101.106892,7.48890714 101.106892,9.19539065 L101.106892,15.5577399 L98.1866251,15.5577399 L98.1866251,4.44171261 L100.984722,4.44171261 L100.984722,6.07495063" id="Fill-10" fill="#286AA6"></path>
                            <path d="M117.004464,8.94824254 C116.971909,8.11557155 116.73733,7.49952298 116.298946,7.09963983 C115.861008,6.69975669 115.354837,6.49958659 114.781771,6.49958659 C114.192204,6.49958659 113.690492,6.71163893 113.275744,7.13665761 C112.861442,7.56121924 112.62285,8.16447157 112.559523,8.94824254 L117.004464,8.94824254 Z M112.46364,10.8091845 C112.511359,11.6350004 112.750397,12.2990349 113.180753,12.8003741 C113.611111,13.3021704 114.184176,13.5526115 114.901289,13.5526115 C115.36331,13.5526115 115.77672,13.4406442 116.14375,13.2167096 C116.509888,12.991861 116.749372,12.696176 116.860863,12.3278265 L119.82386,12.3278265 C119.489386,13.4703498 118.899819,14.3523778 118.056052,14.9729965 C117.210946,15.5931581 116.207077,15.9034674 115.044444,15.9034674 C111.412053,15.9034674 109.595634,13.8789161 109.595634,9.83027055 C109.595634,8.09957623 110.050519,6.72032208 110.958506,5.69159412 C111.866492,4.66240911 113.164253,4.14873064 114.853571,4.14873064 C118.262534,4.14873064 119.967461,6.36888194 119.967461,10.8091845 L112.46364,10.8091845 Z" id="Fill-11" fill="#286AA6"></path>
                            <polygon id="Fill-12" fill="#286AA6" points="121.350371 15.8055113 124.116192 15.8055113 124.116192 0.939226519 121.350371 0.939226519"></polygon>
                        </g>
                        <path d="M26.8500569,29.2186729 C28.1752474,29.02668 29.3786987,28.8907433 30.4240247,29.386842 C29.3974016,27.8242712 26.9377909,26.2900789 23.8552012,25.9295665 C24.1160226,26.7469382 24.9338525,28.7040056 26.8500569,29.2186729" id="Fill-13" fill="#286AA6" fill-rule="nonzero"></path>
                        <path d="M15.9034674,29.386842 C16.4616183,29.118309 17.0405297,29.0443397 17.6565377,29.0443397 C19.3769358,28.2790555 20.8495693,27.8026372 21.6837326,27.5674078 C22.1074509,26.9500622 22.3484087,26.3123839 22.472291,25.9295665 C19.3898686,26.2853903 16.9265172,27.8226194 15.9034674,29.386842" id="Fill-14" fill="#286AA6" fill-rule="nonzero"></path>
                        <path d="M21.4351083,30.7697522 C20.6061071,31.0455111 19.5200149,31.4526326 18.3503512,31.9979767 C16.737323,35.4326153 16.8917118,40.7258826 17.0071679,43.1295123 C18.3698176,43.9111722 19.4109357,44.4626899 20.4003671,45.2903095 C19.9633795,42.3941553 19.1088705,34.7956946 21.4351083,30.7697522" id="Fill-15" fill="#286AA6" fill-rule="nonzero"></path>
                        <path d="M22.4564881,30.4240247 C19.9583519,34.2202128 20.7282738,42.1843284 21.4464793,46.6802618 C22.2400332,47.4646986 22.7123295,48.0294235 22.9811857,48.4018574 C23.2630566,48.0294235 23.7219958,47.4778881 24.456641,46.8000097 C24.6861105,45.6035701 26.5814609,35.0230454 23.4730041,30.5434258 C23.157569,30.5652928 22.7188369,30.6100679 22.4564881,30.4240247" id="Fill-16" fill="#286AA6" fill-rule="nonzero"></path>
                        <path d="M24.8923838,30.2200281 C27.3460825,34.5142741 26.387019,42.3425091 25.908906,45.2903095 C26.7934859,44.5919744 27.7983034,44.0518822 28.7832588,43.5255508 L29.1127596,43.4478053 C29.2556968,42.4326389 30.395294,33.4230822 26.659061,30.0782971 C26.1135582,30.155355 25.4435616,30.2317244 24.8923838,30.2200281" id="Fill-17" fill="#286AA6" fill-rule="nonzero"></path>
                        <path d="M22.9252195,21.9027195 C23.1490442,21.8194385 23.2614803,21.5730369 23.1766294,21.3527897 C22.8550342,20.5168824 20.4411497,21.7034646 20.7753154,24.8595392 C26.7183669,24.8595392 25.7228534,25.8468664 25.7228534,16.9949909 C25.7228534,16.2998355 26.4774324,16.4509113 27.7138802,16.4509113 C28.0696954,18.3939052 30.2587074,18.3925287 30.6145226,16.4509113 C31.3687522,16.4509113 32.1526624,16.6119671 32.1526624,16.0241822 C32.1526624,15.3651611 31.5391523,15.5974531 26.2749077,15.5974531 C25.4930926,15.5974531 24.8568858,16.2241255 24.8568858,16.9949909 C24.8568858,23.6908521 25.0590613,24.006081 24.3048315,24.006081 L21.5927469,24.006081 C21.6234747,23.4162313 21.8315863,22.3112094 22.9252195,21.9027195" id="Fill-18" fill="#286AA6" fill-rule="nonzero"></path>
                        <path d="M15.2843597,15.5986394 C14.7269265,15.5986394 14.7269265,16.4775906 15.2843597,16.4775906 L16.964477,16.4775906 C17.3108334,18.4786223 19.4416558,18.4772046 19.7876722,16.4775906 L21.3593619,16.4775906 C21.5918524,16.4775906 21.7808358,16.2805354 21.7808358,16.038115 C21.7808358,15.3594087 21.2709884,15.5986394 15.2843597,15.5986394" id="Fill-19" fill="#286AA6" fill-rule="nonzero"></path>
                        <path d="M20.7224748,18.6445855 C20.6395153,18.4131461 20.3973541,18.2979697 20.1840776,18.3877928 C19.2271883,18.7854775 17.7490311,19.1052913 16.137534,18.3642504 C15.6286933,18.1320866 15.3069312,18.9589665 15.810734,19.1904059 C18.1215092,20.2527094 21.0200543,19.4758117 20.7224748,18.6445855" id="Fill-20" fill="#286AA6" fill-rule="nonzero"></path>
                        <path d="M30.8940178,18.3842715 C29.9370114,18.7821269 28.4574818,19.1020781 26.8455576,18.360719 C26.1839194,18.0577981 25.4164324,19.7064705 28.8550024,19.7064705 C29.7726937,19.7064705 30.5781521,19.4789175 31.1944267,19.2223768 C31.7088848,19.0078683 31.4081399,18.1690382 30.8940178,18.3842715" id="Fill-21" fill="#286AA6" fill-rule="nonzero"></path>
                        <path d="M16.9406501,32.8441175 C15.7918366,33.4365245 13.5960977,35.0528751 13.6234335,35.0862306 C12.6851412,38.6590884 12.9300983,40.9807681 15.9345508,42.8702166 C15.7918366,40.9276077 15.6352771,36.4103733 16.9406501,32.8441175" id="Fill-22" fill="#286AA6" fill-rule="nonzero"></path>
                        <path d="M34.4137244,10.6639503 C27.7981506,7.80867864 19.6636776,7.65715054 12.6981191,10.6639503 C9.13965346,8.41547983 11.9060846,6.8130701 21.2353333,1.70932791 C22.2321864,1.07600931 24.6155308,0.977171647 25.92306,1.73550094 C34.846809,6.68771503 38.0797717,8.37002143 34.4137244,10.6639503 Z M33.5816917,11.4949443 C27.1178356,9.8663615 20.251583,9.73446315 13.2791282,11.4949443 L13.2001662,11.4487971 C19.9347003,8.65930236 26.9133617,8.65930236 33.6609988,11.4487971 L33.5816917,11.4949443 Z M37.7015122,20.0673026 C39.2200669,15.6757425 37.0942974,12.0817713 36.1633036,10.7958487 C37.490487,9.43106254 37.4970386,7.8021354 35.7540109,6.37777117 C32.848965,4.0039456 26.7350936,0.812212654 26.5237235,0.700288475 C24.7610417,-0.447192579 21.2946411,0.0146237871 20.634325,0.673771034 C11.8153989,5.26507273 8.50278465,7.61548031 10.6054516,10.4004981 C9.72066261,11.5806954 7.42938316,15.2600734 8.99414257,19.7707896 C6.8352711,26.9384136 8.45278685,31.7325561 10.0375454,34.0010008 C10.3147747,33.7106868 10.5985554,33.4338036 10.8957838,33.1765501 C8.32072362,29.661787 9.13965346,24.0896851 9.73376551,21.4389764 C9.97823762,21.8808186 10.2554669,22.329204 10.5854525,22.7841327 C11.0147442,23.3778474 11.9457381,22.7314422 11.5033436,22.124641 C7.79281559,17.0009247 10.367531,12.6093646 11.3974861,11.2115178 C11.4109338,11.2180611 11.4305881,11.2311476 11.443691,11.2442341 L11.4240367,11.257665 C11.6154076,11.3695892 11.9850467,11.6599033 12.1898654,11.7322235 C12.1702111,11.7918016 12.1767625,22.4280417 12.1767625,22.4876197 C12.1767625,22.9490917 12.32848,23.3974772 12.6057093,23.7601115 C13.952892,25.5274802 13.8008297,24.5580447 13.0481038,28.8707413 C12.9360398,29.5498626 13.0877573,29.9124969 13.7149713,31.0599781 C14.0387503,30.8554152 14.3621845,30.65774 14.6856187,30.4731512 C14.2628785,29.7475382 14.0915066,29.4575682 14.1639173,29.0618734 C14.7449265,25.7251555 15.0421549,25.0921813 14.3356339,24.168893 C12.9491426,22.3488338 13.3056788,24.3007913 13.3056788,12.3259382 C19.6378167,15.4512054 26.3957981,15.7304993 33.2055014,12.6093646 C33.2055014,22.9029445 33.3310133,22.6522344 33.0072342,23.08099 C32.2283024,24.103116 31.5945372,24.6899431 31.7859081,25.7978202 C32.5320825,30.0970857 32.7103504,28.8507671 31.2380008,31.5414241 C30.3332128,30.0709127 29.3032575,29.9255837 27.9102147,30.0509387 C30.7031966,33.546072 30.2939042,40.3576049 30.0297777,42.8702166 C32.0369315,41.6369843 33.6609988,40.0610921 32.7169019,35.7680253 C37.424283,30.2951056 35.7802167,25.2109931 35.7012546,24.9933436 C35.4633339,24.2877048 34.3937255,24.6568824 34.6316462,25.355978 C34.6513005,25.4021251 36.0312402,29.6552438 32.3734686,34.4032392 C32.201752,33.7833514 32.0234838,33.2492148 31.8386644,32.7877429 L33.2382584,30.2355274 C34.0768427,28.7057823 32.3472628,25.8174499 33.0799895,24.8480144 C34.710953,22.7049248 34.3344177,24.5911054 34.3344177,12.0817713 C34.3344177,12.0686848 34.3344177,12.0621415 34.3278661,12.0487106 C34.6116469,11.8971825 34.6844025,11.8510353 34.8561191,11.7521977 C35.0078365,11.719137 35.1664504,11.6068684 35.2985135,11.5149184 C36.3350203,12.9193085 38.8900814,17.3043253 35.1926562,22.4214984 C34.7502615,23.0282996 35.6747042,23.6743603 36.1039958,23.08099 C36.4339813,22.6260613 36.7177621,22.1776759 36.9556828,21.7358337 C37.6356532,24.7626077 38.5997491,31.5610541 34.5326848,34.8054773 C33.9313318,35.2924335 34.6726789,36.1485673 35.238861,35.6891618 C40.7917226,31.2576533 38.1508032,21.5774179 37.7015122,20.0673026 Z" id="Fill-23" fill="#286AA6" fill-rule="nonzero"></path>
                        <path d="M10.5453203,24.9663335 C10.4981742,25.1441857 9.72951808,28.3389888 11.855982,32.1526624 C12.1633047,31.9091046 12.4776121,31.6851555 12.7919195,31.4677423 C10.9863983,28.1281118 11.615013,25.4011597 11.6551745,25.242916 C11.842362,24.5249711 10.7325078,24.2483886 10.5453203,24.9663335" id="Fill-24" fill="#286AA6" fill-rule="nonzero"></path>
                        <path d="M23.5032158,2.37358591 C24.156149,2.37358591 24.1571687,3.35965811 23.5032158,3.35965811 C22.8499427,3.35965811 22.849263,2.37358591 23.5032158,2.37358591 Z M25.3491711,6.1368008 C25.3060047,6.17816973 24.695898,6.7454664 23.8434481,6.8939876 L23.8434481,5.12190606 L24.7533398,5.12190606 C25.2036971,5.12190606 25.2036971,4.44304895 24.7533398,4.44304895 L23.8434481,4.44304895 L23.8434481,3.94696106 C25.0888135,3.55497364 24.7958263,1.72863777 23.5028759,1.72863777 C22.2099255,1.72863777 21.9186378,3.55531273 23.1626437,3.94696106 L23.1626437,4.44304895 C22.6636818,4.44304895 21.9125197,4.3091086 21.9125197,4.78247749 C21.9125197,5.25550729 22.6636818,5.12190606 23.1626437,5.12190606 L23.1626437,6.90789028 C22.6918928,6.84753233 22.1827341,6.63288869 21.6708563,6.13815716 C21.3489782,5.82653397 20.8741486,6.31278826 21.1973862,6.62576781 C22.70073,8.08012255 24.6187424,7.77629839 25.8199219,6.62678508 C26.1458787,6.31550098 25.6720688,5.82517761 25.3491711,6.1368008 Z" id="Fill-25" fill="#286AA6" fill-rule="nonzero"></path>
                        <path d="M20.3553465,30.1328923 C20.3553465,30.1328923 20.3553465,30.1328923 20.3619189,30.1328923 C23.5021465,29.0120064 22.5830471,29.5180142 24.8923838,29.2543971 C24.0165239,28.6350683 23.2966722,27.6223681 23.0310086,26.9667491 C22.9500642,27.2067433 22.6999667,27.7100122 22.4152777,28.1136544 C16.6789488,29.6111359 10.747869,32.7153119 8.05525703,38.0451689 L7.16106355,34.7283873 L2.07436532,38.3337781 C2.22656845,38.6090353 3.90910504,41.526283 5.93582824,41.4869116 C10.5250989,40.8415634 7.46270251,34.7345499 20.3553465,30.1328923" id="Fill-26" fill="#286AA6" fill-rule="nonzero"></path>
                        <path d="M2.70496221,15.7958236 L3.42578535,19.6217482 C3.39612044,19.6293181 3.36645553,19.6348236 3.33951844,19.647899 L0.859600359,16.9123921 C0.949277038,16.7578962 0.952686811,16.6188843 0.867442808,16.4609475 L2.30977107,15.5838649 C2.39706092,15.7166832 2.53072348,15.801329 2.70496221,15.7958236 Z M5.3673024,17.4378159 C5.27421595,17.5988495 5.27217011,17.7495604 5.37821363,17.9167876 L3.81449794,19.7005446 C3.75414518,19.6544366 3.68424512,19.624845 3.60616162,19.6128019 L2.8737453,15.7603825 C2.93887169,15.7318231 2.9924049,15.6860593 3.03843666,15.6320373 L5.3673024,17.4378159 Z M3.94475076,23.2019933 C3.80972427,21.5269685 3.85746091,22.1188014 3.72618515,20.4947017 C3.96214051,20.3887224 4.09205234,20.1024404 3.93008876,19.8306102 L5.49755522,18.0434124 C5.50642058,18.0502941 5.51562692,18.0564878 5.52517426,18.0623373 L3.94475076,23.2019933 Z M5.44129418,26.1897172 C5.41844878,26.2117389 5.40378683,26.2402983 5.38605608,26.2664491 L0.910746774,24.3240672 C0.917225294,24.2948196 0.927454577,24.2672925 0.928136524,24.2359804 L3.52262253,23.8055252 C3.55467424,24.091119 3.83086478,24.3054864 4.13706119,24.1912489 L5.44129418,26.1897172 Z M3.7497125,27.957302 C4.73104128,29.7510373 4.49644982,29.3219586 4.89607364,30.0534915 C4.65329877,30.2940097 4.73820179,30.7100133 5.07269917,30.825627 L4.61067675,33.5174347 L3.7197066,27.9776032 C3.73129981,27.972786 3.73914226,27.9631515 3.7497125,27.957302 Z M0.840164731,24.4871653 C0.840846679,24.4861331 0.841528626,24.4851008 0.842210608,24.4840685 L5.31786087,26.4278268 C5.2963794,26.5262362 5.28308134,26.5131608 5.32365748,26.6542373 L3.95907173,27.3530818 C3.86564432,27.1462844 3.63616752,27.0182833 3.38452726,27.1087787 L0.840164731,24.4871653 Z M1.38470333,20.4850673 L3.10663187,20.2314737 C3.13356896,20.3040765 3.17823682,20.3660125 3.23483881,20.4162495 L0.671040655,23.8079338 C0.652627966,23.7989875 0.634556234,23.7921057 0.61477965,23.785224 L1.03077028,20.8811136 C1.22035292,20.8377584 1.36185793,20.6832625 1.38470333,20.4850673 Z M0.746055375,17.0441782 L3.20005928,19.7507815 C3.12504456,19.8326747 3.07764891,19.9396863 3.07526207,20.0594293 L1.37004137,20.306141 C1.32298667,20.1399461 1.19136996,20.0174504 1.02190492,19.9823534 L0.622622064,17.1174691 C0.668653821,17.1006088 0.708207058,17.0741139 0.746055375,17.0441782 Z M3.78244619,23.332403 C3.66208166,23.3888335 3.57581476,23.4965334 3.5383074,23.6269431 L0.899153561,24.0649682 C0.878354039,24.0081936 0.84800718,23.9572684 0.808453978,23.912881 C3.24302225,20.6922088 2.7305354,21.370408 3.38486822,20.5050244 C3.48511517,20.5411537 3.50625569,20.5349601 3.55672012,20.5325515 C3.64878363,21.6732063 3.60138795,21.0851583 3.78244619,23.332403 Z M5.03962453,29.9557702 L3.88678483,27.8478817 C3.96486833,27.75601 4.00442154,27.6579446 3.99896592,27.5271908 C4.53600303,27.2519197 4.2004827,27.4239642 5.40174098,26.8090773 C5.45732004,26.8809919 5.52926598,26.9353579 5.61655582,26.9652937 L5.20977151,29.9206734 C5.14975974,29.9223937 5.09179385,29.9334044 5.03962453,29.9557702 Z M3.23211102,27.1996182 C2.90818387,27.4907174 3.11379237,28.0240552 3.55126451,28.0123562 L4.45928345,33.6595433 C3.92599708,33.8057812 4.0490894,34.5727553 4.57862504,34.5727553 C5.0839514,34.5727553 5.22238762,33.8687493 4.75866032,33.6719307 L5.24284619,30.8517778 C5.74749059,30.8273477 5.85592092,30.1264383 5.37957753,29.9506089 L5.7867028,26.9900681 C6.51127671,26.9501537 6.25281694,25.8119076 5.58416309,26.0937164 L4.28402182,24.1010976 C4.56396305,23.8485363 4.45348685,23.4046616 4.09171138,23.309349 L5.68713783,18.1225528 C6.36329315,18.2385108 6.41205269,17.2000505 5.7628345,17.2000505 C5.65440414,17.2000505 5.55893089,17.2434057 5.48016544,17.3063739 L3.1247036,15.4792618 C3.37600287,14.7346534 2.07893034,14.6135341 2.24396273,15.421799 L0.757648553,16.3253764 C0.436449229,16.0556107 0,16.3019784 0,16.6808203 C0,16.9357902 0.202198725,17.1412113 0.453157031,17.1474049 L0.84800718,19.9806329 C0.334497389,20.077666 0.343362777,20.7992204 0.856190621,20.8862749 L0.444973626,23.7594173 C-0.343362777,23.7972671 0.047395652,25.054912 0.717072412,24.6082846 L3.23211102,27.1996182 Z" id="Fill-27" fill="#286AA6" fill-rule="nonzero"></path>
                    </g>
                </g>
            </g>
        </g>
    </g>
</svg>